<svg width="32" height="48" viewBox="0 0 32 48" fill="none" xmlns="http://www.w3.org/2000/svg">
<path d="M23.8932 34.5487V23.7082L23.9799 23.1529H23.3958H23.3932H22.8932V23.6247C22.8573 23.8105 22.7831 23.987 22.6752 24.1428C22.5578 24.3123 22.4037 24.4531 22.2242 24.5546L22.2114 24.5618L22.199 24.5698C21.7579 24.8547 21.3735 24.9982 20.9404 25.1562C20.6308 25.2631 20.313 25.3709 19.9881 25.4812C19.3493 25.6979 18.6828 25.924 17.9959 26.1711C17.5667 26.3175 17.1629 26.461 16.7792 26.5974C16.1643 26.8158 15.601 27.016 15.0675 27.1807L15.0603 27.183L15.0532 27.1854C14.705 27.3045 14.3578 27.4197 14.0136 27.534C13.2993 27.7711 12.5979 28.0039 11.9271 28.2578L11.9172 28.2616L11.9074 28.2658C11.1262 28.6 10.3925 29.0357 9.72504 29.5616L9.71153 29.5723L9.69879 29.5838C9.07667 30.1474 8.53376 30.7927 8.08484 31.5021L8.08029 31.5093L8.07599 31.5166C7.59045 32.3449 7.29518 33.3949 7.29518 34.5975C7.29518 36.9062 7.85367 38.7694 9.07881 39.9692C10.3217 41.2457 12.5275 41.7718 15.5389 41.7718C18.6194 41.7718 20.8805 41.1882 22.1264 39.8516L22.1276 39.8503C23.3257 38.5559 23.8932 36.7661 23.8932 34.5487ZM27.0022 3.48261L27.0022 3.48264L27.0071 3.48666C29.4027 5.42573 30.5856 7.89669 30.5856 10.8366V37.2148C30.5856 38.217 30.3823 39.3414 30.0099 40.5943C29.6541 41.7798 28.9497 42.8749 27.8101 43.8851L27.81 43.8849L27.7999 43.8944C26.7199 44.9065 25.2057 45.7827 23.2358 46.4602C21.2868 47.1306 18.7289 47.5 15.5441 47.5C12.3643 47.5 9.80136 47.1305 7.85515 46.4603C5.88747 45.7826 4.37077 44.9064 3.29079 43.8944L3.29086 43.8943L3.28362 43.8878C2.28427 42.9872 1.52656 41.8506 1.07964 40.5819C0.704459 39.3363 0.5 38.216 0.5 37.2174V33.001C0.5 30.8487 1.07334 28.8631 2.21688 27.1319L2.21691 27.1319L2.22019 27.1268C3.35458 25.3633 4.94956 24.1476 7.03936 23.3786C7.55839 23.2012 8.11601 23.0234 8.71771 22.8316L8.7823 22.811C9.40914 22.6112 10.081 22.3965 10.7942 22.1545L10.7947 22.1543C11.3563 21.963 11.8942 21.7743 12.4194 21.5901C13.2384 21.3028 14.0262 21.0265 14.8239 20.7684L14.8255 20.7678C16.1485 20.3346 17.3016 19.9018 18.2837 19.5255L18.2837 19.5255L18.2905 19.5228C18.8692 19.2913 19.457 19.083 20.0524 18.8986L20.0894 18.8871L20.1243 18.8701L21.1064 18.3893L21.1177 18.3838L21.1286 18.3777C21.5779 18.1291 21.9982 17.7662 22.4053 17.3127L22.4054 17.3125C22.8166 16.8541 23.1669 16.3374 23.4599 15.7677L23.46 15.7677L23.4622 15.7632C23.788 15.1141 23.9559 14.3973 23.9524 13.671V11.9644C23.9566 11.2745 23.8134 10.5917 23.5325 9.96175C23.2782 9.22249 22.7823 8.57477 22.1468 8.01022C21.4805 7.4156 20.5924 6.96088 19.573 6.62373L19.573 6.62372L19.5692 6.62251C18.5201 6.2847 17.1575 6.12025 15.6521 6.12025C12.5687 6.12025 10.3568 6.70995 9.11609 8.10278L9.11605 8.10275L9.11136 8.10816C8.11201 9.26297 7.52756 10.7007 7.41217 12.2969L7.41087 12.3149V12.3329C7.41087 12.3358 7.41071 12.3377 7.41054 12.3389C7.41005 12.3394 7.40934 12.3401 7.40836 12.341C7.3995 12.3486 7.36818 12.3677 7.30927 12.3677V12.3676L7.30115 12.3678L0.654263 12.4757C0.628762 12.4753 0.604345 12.4652 0.586126 12.4473L0.235632 12.8039L0.586124 12.4473C0.567941 12.4294 0.557367 12.4052 0.556561 12.3798V10.8418C0.556561 9.40743 0.819092 8.0898 1.38665 6.82543C1.94981 5.57397 2.82103 4.5185 4.01681 3.59757C5.21236 2.68393 6.789 1.91035 8.69797 1.38995L8.71207 1.38611L8.72592 1.38145C10.5631 0.763294 12.8462 0.500167 15.5441 0.5C20.8457 0.500327 24.6287 1.51081 27.0022 3.48261Z" fill="#0A3871"/>
<path d="M23.8932 34.5487V23.7082L23.9799 23.1529H23.3958H23.3932H22.8932V23.6247C22.8573 23.8105 22.7831 23.987 22.6752 24.1428C22.5578 24.3123 22.4037 24.4531 22.2242 24.5546L22.2114 24.5618L22.199 24.5698C21.7579 24.8547 21.3735 24.9982 20.9404 25.1562C20.6308 25.2631 20.313 25.3709 19.9881 25.4812C19.3493 25.6979 18.6828 25.924 17.9959 26.1711C17.5667 26.3175 17.1629 26.461 16.7792 26.5974C16.1643 26.8158 15.601 27.016 15.0675 27.1807L15.0603 27.183L15.0532 27.1854C14.705 27.3045 14.3578 27.4197 14.0136 27.534C13.2993 27.7711 12.5979 28.0039 11.9271 28.2578L11.9172 28.2616L11.9074 28.2658C11.1262 28.6 10.3925 29.0357 9.72504 29.5616L9.71153 29.5723L9.69879 29.5838C9.07667 30.1474 8.53376 30.7927 8.08484 31.5021L8.08029 31.5093L8.07599 31.5166C7.59045 32.3449 7.29518 33.3949 7.29518 34.5975C7.29518 36.9062 7.85367 38.7694 9.07881 39.9692C10.3217 41.2457 12.5275 41.7718 15.5389 41.7718C18.6194 41.7718 20.8805 41.1882 22.1264 39.8516L22.1276 39.8503C23.3257 38.5559 23.8932 36.7661 23.8932 34.5487ZM27.0022 3.48261L27.0022 3.48264L27.0071 3.48666C29.4027 5.42573 30.5856 7.89669 30.5856 10.8366V37.2148C30.5856 38.217 30.3823 39.3414 30.0099 40.5943C29.6541 41.7798 28.9497 42.8749 27.8101 43.8851L27.81 43.8849L27.7999 43.8944C26.7199 44.9065 25.2057 45.7827 23.2358 46.4602C21.2868 47.1306 18.7289 47.5 15.5441 47.5C12.3643 47.5 9.80136 47.1305 7.85515 46.4603C5.88747 45.7826 4.37077 44.9064 3.29079 43.8944L3.29086 43.8943L3.28362 43.8878C2.28427 42.9872 1.52656 41.8506 1.07964 40.5819C0.704459 39.3363 0.5 38.216 0.5 37.2174V33.001C0.5 30.8487 1.07334 28.8631 2.21688 27.1319L2.21691 27.1319L2.22019 27.1268C3.35458 25.3633 4.94956 24.1476 7.03936 23.3786C7.55839 23.2012 8.11601 23.0234 8.71771 22.8316L8.7823 22.811C9.40914 22.6112 10.081 22.3965 10.7942 22.1545L10.7947 22.1543C11.3563 21.963 11.8942 21.7743 12.4194 21.5901C13.2384 21.3028 14.0262 21.0265 14.8239 20.7684L14.8255 20.7678C16.1485 20.3346 17.3016 19.9018 18.2837 19.5255L18.2837 19.5255L18.2905 19.5228C18.8692 19.2913 19.457 19.083 20.0524 18.8986L20.0894 18.8871L20.1243 18.8701L21.1064 18.3893L21.1177 18.3838L21.1286 18.3777C21.5779 18.1291 21.9982 17.7662 22.4053 17.3127L22.4054 17.3125C22.8166 16.8541 23.1669 16.3374 23.4599 15.7677L23.46 15.7677L23.4622 15.7632C23.788 15.1141 23.9559 14.3973 23.9524 13.671V11.9644C23.9566 11.2745 23.8134 10.5917 23.5325 9.96175C23.2782 9.22249 22.7823 8.57477 22.1468 8.01022C21.4805 7.4156 20.5924 6.96088 19.573 6.62373L19.573 6.62372L19.5692 6.62251C18.5201 6.2847 17.1575 6.12025 15.6521 6.12025C12.5687 6.12025 10.3568 6.70995 9.11609 8.10278L9.11605 8.10275L9.11136 8.10816C8.11201 9.26297 7.52756 10.7007 7.41217 12.2969L7.41087 12.3149V12.3329C7.41087 12.3358 7.41071 12.3377 7.41054 12.3389C7.41005 12.3394 7.40934 12.3401 7.40836 12.341C7.3995 12.3486 7.36818 12.3677 7.30927 12.3677V12.3676L7.30115 12.3678L0.654263 12.4757C0.628762 12.4753 0.604345 12.4652 0.586126 12.4473L0.235632 12.8039L0.586124 12.4473C0.567941 12.4294 0.557367 12.4052 0.556561 12.3798V10.8418C0.556561 9.40743 0.819092 8.0898 1.38665 6.82543C1.94981 5.57397 2.82103 4.5185 4.01681 3.59757C5.21236 2.68393 6.789 1.91035 8.69797 1.38995L8.71207 1.38611L8.72592 1.38145C10.5631 0.763294 12.8462 0.500167 15.5441 0.5C20.8457 0.500327 24.6287 1.51081 27.0022 3.48261Z" stroke="black"/>
<path d="M23.8932 34.5487V23.7082L23.9799 23.1529H23.3958H23.3932H22.8932V23.6247C22.8573 23.8105 22.7831 23.987 22.6752 24.1428C22.5578 24.3123 22.4037 24.4531 22.2242 24.5546L22.2114 24.5618L22.199 24.5698C21.7579 24.8547 21.3735 24.9982 20.9404 25.1562C20.6308 25.2631 20.313 25.3709 19.9881 25.4812C19.3493 25.6979 18.6828 25.924 17.9959 26.1711C17.5667 26.3175 17.1629 26.461 16.7792 26.5974C16.1643 26.8158 15.601 27.016 15.0675 27.1807L15.0603 27.183L15.0532 27.1854C14.705 27.3045 14.3578 27.4197 14.0136 27.534C13.2993 27.7711 12.5979 28.0039 11.9271 28.2578L11.9172 28.2616L11.9074 28.2658C11.1262 28.6 10.3925 29.0357 9.72504 29.5616L9.71153 29.5723L9.69879 29.5838C9.07667 30.1474 8.53376 30.7927 8.08484 31.5021L8.08029 31.5093L8.07599 31.5166C7.59045 32.3449 7.29518 33.3949 7.29518 34.5975C7.29518 36.9062 7.85367 38.7694 9.07881 39.9692C10.3217 41.2457 12.5275 41.7718 15.5389 41.7718C18.6194 41.7718 20.8805 41.1882 22.1264 39.8516L22.1276 39.8503C23.3257 38.5559 23.8932 36.7661 23.8932 34.5487ZM27.0022 3.48261L27.0022 3.48264L27.0071 3.48666C29.4027 5.42573 30.5856 7.89669 30.5856 10.8366V37.2148C30.5856 38.217 30.3823 39.3414 30.0099 40.5943C29.6541 41.7798 28.9497 42.8749 27.8101 43.8851L27.81 43.8849L27.7999 43.8944C26.7199 44.9065 25.2057 45.7827 23.2358 46.4602C21.2868 47.1306 18.7289 47.5 15.5441 47.5C12.3643 47.5 9.80136 47.1305 7.85515 46.4603C5.88747 45.7826 4.37077 44.9064 3.29079 43.8944L3.29086 43.8943L3.28362 43.8878C2.28427 42.9872 1.52656 41.8506 1.07964 40.5819C0.704459 39.3363 0.5 38.216 0.5 37.2174V33.001C0.5 30.8487 1.07334 28.8631 2.21688 27.1319L2.21691 27.1319L2.22019 27.1268C3.35458 25.3633 4.94956 24.1476 7.03936 23.3786C7.55839 23.2012 8.11601 23.0234 8.71771 22.8316L8.7823 22.811C9.40914 22.6112 10.081 22.3965 10.7942 22.1545L10.7947 22.1543C11.3563 21.963 11.8942 21.7743 12.4194 21.5901C13.2384 21.3028 14.0262 21.0265 14.8239 20.7684L14.8255 20.7678C16.1485 20.3346 17.3016 19.9018 18.2837 19.5255L18.2837 19.5255L18.2905 19.5228C18.8692 19.2913 19.457 19.083 20.0524 18.8986L20.0894 18.8871L20.1243 18.8701L21.1064 18.3893L21.1177 18.3838L21.1286 18.3777C21.5779 18.1291 21.9982 17.7662 22.4053 17.3127L22.4054 17.3125C22.8166 16.8541 23.1669 16.3374 23.4599 15.7677L23.46 15.7677L23.4622 15.7632C23.788 15.1141 23.9559 14.3973 23.9524 13.671V11.9644C23.9566 11.2745 23.8134 10.5917 23.5325 9.96175C23.2782 9.22249 22.7823 8.57477 22.1468 8.01022C21.4805 7.4156 20.5924 6.96088 19.573 6.62373L19.573 6.62372L19.5692 6.62251C18.5201 6.2847 17.1575 6.12025 15.6521 6.12025C12.5687 6.12025 10.3568 6.70995 9.11609 8.10278L9.11605 8.10275L9.11136 8.10816C8.11201 9.26297 7.52756 10.7007 7.41217 12.2969L7.41087 12.3149V12.3329C7.41087 12.3358 7.41071 12.3377 7.41054 12.3389C7.41005 12.3394 7.40934 12.3401 7.40836 12.341C7.3995 12.3486 7.36818 12.3677 7.30927 12.3677V12.3676L7.30115 12.3678L0.654263 12.4757C0.628762 12.4753 0.604345 12.4652 0.586126 12.4473L0.235632 12.8039L0.586124 12.4473C0.567941 12.4294 0.557367 12.4052 0.556561 12.3798V10.8418C0.556561 9.40743 0.819092 8.0898 1.38665 6.82543C1.94981 5.57397 2.82103 4.5185 4.01681 3.59757C5.21236 2.68393 6.789 1.91035 8.69797 1.38995L8.71207 1.38611L8.72592 1.38145C10.5631 0.763294 12.8462 0.500167 15.5441 0.5C20.8457 0.500327 24.6287 1.51081 27.0022 3.48261Z" stroke="black" stroke-opacity="0.2"/>
</svg>
